<svg xmlns="http://www.w3.org/2000/svg" viewBox="0 0 74.86 20"><defs><style>.cls-1{fill:#e3e3e2;}.cls-2{fill:#727c60;}</style></defs><title>thunder-2-4</title><g id="レイヤー_2" data-name="レイヤー 2"><g id="レイヤー_1-2" data-name="レイヤー 1"><path id="path-3" class="cls-1" d="M68.23,0h5.9L69.91,6.91l5-.22L62.78,20l5.67-9.66H64.24Z"/><path id="path-3-3" class="cls-2" d="M21,0h5.9L22.67,6.91l4.94-.22L15.53,20l5.68-9.66H17Z"/><path id="path-3-4" class="cls-2" d="M5.45,0h5.9L7.13,6.91l5-.22L0,20l5.67-9.66H1.46Z"/><path id="path-3-5" class="cls-1" d="M52.38,0h5.9L54.06,6.91,59,6.69,46.93,20l5.67-9.66H48.38Z"/><path id="path-3-4-2" data-name="path-3-4" class="cls-1" d="M36.52,0h5.9L41.2,2,40,4,38.76,6l-.56.91,4.95-.18L42,8l-1.82,2-1.81,2-1.81,2-1.81,2-1.82,2-1.82,2,1.18-2,1.18-2,1.17-2,1.15-2,1-1.69H32.53l.13-.34.77-2,.77-2L35,4l.78-2Z"/><path id="path-3-4-3" data-name="path-3-4" class="cls-2" d="M33.43,8l.77-2L35,4l.78-2,.77-2h5.9L41.2,2,40,4,38.76,6l-.56.91,4.95-.18L42,8Z"/></g></g></svg>