<svg xmlns="http://www.w3.org/2000/svg" viewBox="0 0 74.86 20.01"><defs><style>.cls-1{fill:#e3e3e2;}.cls-2{fill:#727c60;}</style></defs><title>thunder-3-6</title><g id="レイヤー_2" data-name="レイヤー 2"><g id="レイヤー_1-2" data-name="レイヤー 1"><path id="path-3" class="cls-1" d="M68.23,0h5.9L69.91,6.91l5-.22L62.78,20l5.67-9.66H64.24Z"/><path id="path-3-3" class="cls-2" d="M21,0h5.9L22.67,6.91l4.94-.22L15.53,20l5.68-9.66H17Z"/><path id="path-3-3-2" data-name="path-3-3" class="cls-2" d="M36.52,0h5.9L38.2,6.91l4.95-.22L31.07,20l5.67-9.66H32.52Z"/><path id="path-3-4" class="cls-1" d="M52.37,0h5.9L57.06,2,55.83,4,54.61,6l-.55.91L59,6.74,57.82,8,56,10l-1.81,2-1.81,2-1.81,2-1.82,2-1.82,2,1.18-2,1.18-2,1.17-2,1.15-2,1-1.69H48.38l.13-.34.78-2,.77-2,.77-2,.77-2Z"/><path id="path-3-4-2" data-name="path-3-4" class="cls-2" d="M51.62,12l1-1.66H48.38l.13-.34.78-2,.77-2,.77-2,.77-2,.77-2h5.9L57.06,2,55.83,4,54.61,6l-.55.91L59,6.74,57.82,8,56,10l-1.81,2Z"/><path id="path-3-4-3" data-name="path-3-4" class="cls-2" d="M5.45,0h5.9L7.13,6.91l5-.22L0,20l5.67-9.66H1.46Z"/></g></g></svg>