<svg xmlns="http://www.w3.org/2000/svg" viewBox="0 0 74.86 20"><defs><style>.cls-1{fill:#e3e3e2;}.cls-2{fill:#727c60;}</style></defs><title>thunder-1-1</title><g id="レイヤー_2" data-name="レイヤー 2"><g id="レイヤー_1-2" data-name="レイヤー 1"><path id="path-3" class="cls-1" d="M68.23,0h5.9L69.91,6.91l5-.22L62.78,20l5.67-9.66H64.24Z"/><path id="path-3-2" class="cls-1" d="M36.52,0h5.9L38.2,6.91l4.95-.22L31.07,20l5.67-9.66H32.52Z"/><path id="path-3-4" class="cls-2" d="M5.45,0h5.9L10.13,2,8.91,4,7.69,6l-.56.91,5-.18L10.89,8,9.07,10,7.26,12,5.45,14,3.64,16,1.82,18,0,20l1.18-2,1.18-2,1.17-2,1.15-2,1-1.69H1.46L1.59,10l.77-2,.77-2L3.9,4l.78-2Z"/><path id="path-3-5" class="cls-1" d="M52.38,0h5.9L54.06,6.91,59,6.69,46.93,20l5.67-9.66H48.38Z"/><path id="path-3-4-2" data-name="path-3-4" class="cls-1" d="M21,0h5.9L25.67,2,24.44,4,23.23,6l-.56.91,4.94-.18L26.43,8l-1.82,2-1.82,2L21,14l-1.81,2-1.82,2-1.82,2,1.18-2,1.18-2,1.17-2,1.15-2,1-1.69H17l.13-.34.78-2,.77-2,.77-2,.77-2Z"/><path id="path-3-4-3" data-name="path-3-4" class="cls-2" d="M20.21,2,21,0h5.9L25.67,2Z"/></g></g></svg>