<svg xmlns="http://www.w3.org/2000/svg" viewBox="0 0 74.86 20"><defs><style>.cls-1{fill:#727c60;}.cls-2{fill:#e3e3e2;}</style></defs><title>thunder-4-8</title><g id="レイヤー_2" data-name="レイヤー 2"><g id="レイヤー_1-2" data-name="レイヤー 1"><path id="path-3" class="cls-1" d="M52.38,0h5.89L54.06,6.91,59,6.69,46.93,20l5.67-9.66H48.38Z"/><path id="path-3-3" class="cls-1" d="M21,0h5.9L22.67,6.91l4.94-.22L15.53,20l5.68-9.66H17Z"/><path id="path-3-3-2" data-name="path-3-3" class="cls-1" d="M36.52,0h5.9L38.2,6.91l4.95-.22L31.07,20l5.67-9.66H32.52Z"/><path id="path-3-4" class="cls-1" d="M5.45,0h5.9L7.13,6.91l5-.22L0,20l5.67-9.66H1.46Z"/><path id="path-3-4-2" data-name="path-3-4" class="cls-2" d="M68.23,0h5.9L72.91,2,71.69,4,70.47,6l-.55.91,4.94-.18L73.67,8l-1.82,2L70,12l-1.81,2-1.81,2L64.6,18l-1.82,2L64,18l1.18-2,1.17-2,1.15-2,1-1.69H64.24l.13-.34.77-2,.77-2,.77-2,.78-2Z"/><path id="path-3-4-3" data-name="path-3-4" class="cls-1" d="M65.14,16l1.17-2,1.15-2,1-1.69H64.24l.13-.34.77-2,.77-2,.77-2,.78-2,.77-2h5.9L72.91,2,71.69,4,70.47,6l-.55.91,4.94-.18L73.67,8l-1.82,2L70,12l-1.81,2-1.81,2Z"/></g></g></svg>