<?xml version="1.0" encoding="utf-8"?>
<!-- Generator: Adobe Illustrator 23.0.2, SVG Export Plug-In . SVG Version: 6.00 Build 0)  -->
<svg version="1.1" id="レイヤー_1" xmlns="http://www.w3.org/2000/svg" xmlns:xlink="http://www.w3.org/1999/xlink" x="0px"
	 y="0px" viewBox="0 0 74.9 20" style="enable-background:new 0 0 74.9 20;" xml:space="preserve">
<style type="text/css">
	.st0{fill:#727C60;}
	.st1{fill:#E3E3E2;}
</style>
<g>
	<path id="path-3" class="st0" d="M-185.6,26h5.9l-4.2,6.9l4.9-0.2L-191.1,46l5.7-9.7h-4.2L-185.6,26z"/>
	<path id="path-3-2" class="st0" d="M-217.3,26h5.9l-4.2,6.9l4.9-0.2L-222.8,46l5.7-9.7h-4.2L-217.3,26z"/>
	<path id="path-3-3" class="st0" d="M-232.9,26h5.9l-4.2,6.9l4.9-0.2L-238.3,46l5.7-9.7h-4.2L-232.9,26z"/>
	<path id="path-3-4" class="st0" d="M-248.4,26h5.9l-4.2,6.9l4.9-0.2L-253.9,46l5.7-9.7h-4.2L-248.4,26z"/>
	<path id="path-3-5" class="st0" d="M-201.5,26h5.9l-4.2,6.9l4.9-0.2L-206.9,46l5.7-9.7h-4.2L-201.5,26z"/>
</g>
<g>
	<path id="path-3_1_" class="st0" d="M52.4,0h5.9l-4.2,6.9L59,6.7L46.9,20l5.7-9.7h-4.2L52.4,0z"/>
	<g>
		<path id="path-3-4_34_" class="st1" d="M68.2,0h5.9l-1.2,2l-1.2,2l-1.2,2l-0.6,0.9l4.9-0.2L73.7,8l-1.8,2L70,12l-1.8,2l-1.8,2
			l-1.8,2l-1.8,2l1.2-2l1.2-2l1.2-2l1.2-2l1-1.7h-4.2l0.1-0.3l0.8-2l0.8-2l0.8-2l0.8-2L68.2,0z"/>
		<path id="path-3-4_33_" class="st0" d="M64,18l1.2-2l1.2-2l1.2-2l1-1.7h-4.2l0.1-0.3l0.8-2l0.8-2l0.8-2l0.8-2l0.8-2h5.9l-1.2,2
			l-1.2,2l-1.2,2l-0.6,0.9l4.9-0.2L73.7,8l-1.8,2L70,12l-1.8,2l-1.8,2l-1.8,2L64,18z"/>
	</g>
	<path id="path-3-3_1_" class="st0" d="M21,0h5.9l-4.2,6.9l4.9-0.2L15.5,20l5.7-9.7H17L21,0z"/>
	<path id="path-3-3_3_" class="st0" d="M36.5,0h5.9l-4.2,6.9l4.9-0.2L31.1,20l5.7-9.7h-4.2L36.5,0z"/>
	<path id="path-3-4_1_" class="st0" d="M5.4,0h5.9L7.1,6.9l4.9-0.2L0,20l5.7-9.7H1.5L5.4,0z"/>
</g>
<g>
	<path id="path-3_4_" class="st1" d="M-25.6,0h5.9l-4.2,6.9l4.9-0.2L-31,20l5.7-9.7h-4.2L-25.6,0z"/>
	<path id="path-3-3_5_" class="st0" d="M-72.8,0h5.9l-4.2,6.9l4.9-0.2L-78.3,20l5.7-9.7h-4.2L-72.8,0z"/>
	<path id="path-3-3_4_" class="st0" d="M-57.3,0h5.9l-4.2,6.9l4.9-0.2L-62.7,20l5.7-9.7h-4.2L-57.3,0z"/>
	<path id="path-3-4_42_" class="st0" d="M-88.3,0h5.9l-4.2,6.9l4.9-0.2L-93.8,20l5.7-9.7h-4.2L-88.3,0z"/>
	<g>
		<path id="path-3-4_38_" class="st1" d="M-41.4,0h5.9l-1.2,2L-38,4l-1.2,2l-0.6,0.9l4.9-0.2L-36,8l-1.8,2l-1.8,2l-1.8,2l-1.8,2
			l-1.8,2l-1.8,2l1.2-2l1.2-2l1.2-2l1.2-2l1-1.7h-4.2l0.1-0.3l0.8-2l0.8-2l0.8-2l0.8-2L-41.4,0z"/>
		<path id="path-3-4_37_" class="st0" d="M-45.7,18l1.2-2l1.2-2l1.2-2l1-1.7h-4.2l0.1-0.3l0.8-2l0.8-2l0.8-2l0.8-2l0.8-2h5.9l-1.2,2
			L-38,4l-1.2,2l-0.6,0.9l4.9-0.2L-36,8l-1.8,2l-1.8,2l-1.8,2l-1.8,2l-1.8,2L-45.7,18z"/>
	</g>
</g>
<g>
	<path id="path-3_3_" class="st1" d="M-107.8,0h5.9l-4.2,6.9l4.9-0.2L-113.3,20l5.7-9.7h-4.2L-107.8,0z"/>
	<path id="path-3-3_2_" class="st0" d="M-155.1,0h5.9l-4.2,6.9l4.9-0.2L-160.5,20l5.7-9.7h-4.2L-155.1,0z"/>
	<path id="path-3-4_39_" class="st0" d="M-170.6,0h5.9l-4.2,6.9l4.9-0.2L-176,20l5.7-9.7h-4.2L-170.6,0z"/>
	<path id="path-3-5_3_" class="st1" d="M-123.7,0h5.9l-4.2,6.9l4.9-0.2L-129.1,20l5.7-9.7h-4.2L-123.7,0z"/>
	<g>
		<path id="path-3-4_36_" class="st1" d="M-139.5,0h5.9l-1.2,2l-1.2,2l-1.2,2l-0.6,0.9l4.9-0.2l-1.2,1.3l-1.8,2l-1.8,2l-1.8,2
			l-1.8,2l-1.8,2l-1.8,2l1.2-2l1.2-2l1.2-2l1.2-2l1-1.7h-4.2l0.1-0.3l0.8-2l0.8-2l0.8-2l0.8-2L-139.5,0z"/>
		<path id="path-3-4_35_" class="st0" d="M-143.8,18l1.2-2l1.2-2l1.2-2l1-1.7h-4.2l0.1-0.3l0.8-2l0.8-2l0.8-2l0.8-2l0.8-2h5.9
			l-1.2,2l-1.2,2l-1.2,2l-0.6,0.9l4.9-0.2l-1.2,1.3l-1.8,2l-1.8,2l-1.8,2l-1.8,2l-1.8,2L-143.8,18z"/>
	</g>
</g>
<path id="path-3-4_11_" class="st0" d="M-426.8,4"/>
<path id="path-3-4_10_" class="st0" d="M-424.2,14l-1.8,2l-1.8,2l-1.8,2l-1.8,2l1.2-2l1.2-2l1.2-2l1.2-2L-424.2,14z"/>
<path id="path-3-4_3_" class="st0" d="M-419.4,8.7"/>
<path id="path-3-4_14_" class="st0" d="M-441.6,10l-1.8,2l-1.8,2l-1.8,2l-1.8,2l-1.8,2l-1.8,2l1.2-2l1.2-2l1.2-2l1.2-2l1-1.7h-4.2
	l0.1-0.3l0.8-2L-441.6,10z"/>
<path id="path-3-4_9_" class="st0" d="M-470,6l-1.2,2l-0.6,0.9l4.9-0.2L-468,10l-1.8,2l-1.8,2l-1.8,2l-1.8,2l-1.8,2l-1.8,2l1.2-2
	l1.2-2l1.2-2l1.2-2l1-1.7h-4.2l0.1-0.3l0.8-2l0.8-2l0.8-2L-470,6z"/>
<path id="path-3-4_13_" class="st0" d="M-373.2,0h5.9l-1.2,2l-1.2,2l-1.2,2l-0.6,0.9l4.9-0.2l-1.2,1.3l-1.8,2l-1.8,2l-1.8,2l-1.8,2
	l-1.8,2l-1.8,2l1.2-2l1.2-2l1.2-2l1.2-2l1-1.7h-4.2l0.1-0.3l0.8-2l0.8-2l0.8-2l0.8-2L-373.2,0z"/>
<g>
	<path id="path-3-4_29_" class="st1" d="M-361.3,0h5.9l-1.2,2l-1.2,2l-1.2,2l-0.6,0.9l4.9-0.2l-1.2,1.3l-1.8,2l-1.8,2l-1.8,2l-1.8,2
		l-1.8,2l-1.8,2l1.2-2l1.2-2l1.2-2l1.2-2l1-1.7h-4.2l0.1-0.3l0.8-2l0.8-2l0.8-2l0.8-2L-361.3,0z"/>
	<path id="path-3-4_25_" class="st0" d="M-365.5,18l1.2-2l1.2-2l1.2-2l1-1.7h-4.2l0.1-0.3l0.8-2l0.8-2l0.8-2l0.8-2l0.8-2h5.9l-1.2,2
		l-1.2,2l-1.2,2l-0.6,0.9l4.9-0.2l-1.2,1.3l-1.8,2l-1.8,2l-1.8,2l-1.8,2l-1.8,2L-365.5,18z"/>
</g>
<g>
	<path id="path-3-4_41_" class="st1" d="M-615.1,0h5.9l-1.2,2l-1.2,2l-1.2,2l-0.6,0.9l4.9-0.2l-1.2,1.3l-1.8,2l-1.8,2l-1.8,2l-1.8,2
		l-1.8,2l-1.8,2l1.2-2l1.2-2l1.2-2l1.2-2l1-1.7h-4.2l0.1-0.3l0.8-2l0.8-2l0.8-2l0.8-2L-615.1,0z"/>
	<path id="path-3-4_40_" class="st0" d="M-619.4,18l1.2-2l1.2-2l1.2-2l1-1.7h-4.2l0.1-0.3l0.8-2l0.8-2l0.8-2l0.8-2l0.8-2h5.9l-1.2,2
		l-1.2,2l-1.2,2l-0.6,0.9l4.9-0.2l-1.2,1.3l-1.8,2l-1.8,2l-1.8,2l-1.8,2l-1.8,2L-619.4,18z"/>
</g>
<g>
	<path id="path-3-4_28_" class="st1" d="M-349.6,0h5.9l-1.2,2l-1.2,2l-1.2,2l-0.6,0.9l4.9-0.2l-1.2,1.3l-1.8,2l-1.8,2l-1.8,2l-1.8,2
		l-1.8,2l-1.8,2l1.2-2l1.2-2l1.2-2l1.2-2l1-1.7h-4.2l0.1-0.3l0.8-2l0.8-2l0.8-2l0.8-2L-349.6,0z"/>
	<path id="path-3-4_24_" class="st0" d="M-352.7,16l1.2-2l1.2-2l1-1.7h-4.2l0.1-0.3l0.8-2l0.8-2l0.8-2l0.8-2l0.8-2h5.9l-1.2,2
		l-1.2,2l-1.2,2l-0.6,0.9l4.9-0.2l-1.2,1.3l-1.8,2l-1.8,2l-1.8,2l-1.8,2L-352.7,16z"/>
</g>
<g>
	<path id="path-3-4_27_" class="st1" d="M-337.8,0h5.9l-1.2,2l-1.2,2l-1.2,2l-0.6,0.9l4.9-0.2l-1.2,1.3l-1.8,2l-1.8,2l-1.8,2l-1.8,2
		l-1.8,2l-1.8,2l1.2-2l1.2-2l1.2-2l1.2-2l1-1.7h-4.2l0.1-0.3l0.8-2l0.8-2l0.8-2l0.8-2L-337.8,0z"/>
	<path id="path-3-4_22_" class="st0" d="M-339.7,14l1.2-2l1-1.7h-4.2l0.1-0.3l0.8-2l0.8-2l0.8-2l0.8-2l0.8-2h5.9l-1.2,2l-1.2,2
		l-1.2,2l-0.6,0.9l4.9-0.2l-1.2,1.3l-1.8,2l-1.8,2l-1.8,2L-339.7,14z"/>
</g>
<g>
	<path id="path-3-4_30_" class="st1" d="M-325,0h5.9l-1.2,2l-1.2,2l-1.2,2l-0.6,0.9l4.9-0.2l-1.2,1.3l-1.8,2l-1.8,2l-1.8,2l-1.8,2
		l-1.8,2l-1.8,2l1.2-2l1.2-2l1.2-2l1.2-2l1-1.7h-4.2l0.1-0.3l0.8-2l0.8-2l0.8-2l0.8-2L-325,0z"/>
	<path id="path-3-4_20_" class="st0" d="M-325.7,12l1-1.7h-4.2l0.1-0.3l0.8-2l0.8-2l0.8-2l0.8-2l0.8-2h5.9l-1.2,2l-1.2,2l-1.2,2
		l-0.6,0.9l4.9-0.2l-1.2,1.3l-1.8,2l-1.8,2H-325.7z"/>
</g>
<g>
	<path id="path-3-4_23_" class="st1" d="M-309,0h5.9l-1.2,2l-1.2,2l-1.2,2l-0.6,0.9l4.9-0.2l-1.2,1.3l-1.8,2l-1.8,2l-1.8,2l-1.8,2
		l-1.8,2l-1.8,2l1.2-2l1.2-2l1.2-2l1.2-2l1-1.7h-4.2l0.1-0.3l0.8-2l0.8-2l0.8-2l0.8-2L-309,0z"/>
	<path id="path-3-4_21_" class="st0" d="M-312.9,10l0.8-2l0.8-2l0.8-2l0.8-2l0.8-2h5.9l-1.2,2l-1.2,2l-1.2,2l-0.6,0.9l4.9-0.2
		l-1.2,1.3l-1.8,2L-312.9,10z"/>
</g>
<g>
	<path id="path-3-4_26_" class="st1" d="M-294.6,0h5.9l-1.2,2l-1.2,2l-1.2,2l-0.6,0.9l4.9-0.2l-1.2,1.3l-1.8,2l-1.8,2l-1.8,2l-1.8,2
		l-1.8,2l-1.8,2l1.2-2l1.2-2l1.2-2l1.2-2l1-1.7h-4.2l0.1-0.3l0.8-2l0.8-2l0.8-2l0.8-2L-294.6,0z"/>
	<path id="path-3-4_19_" class="st0" d="M-297.6,8l0.8-2l0.8-2l0.8-2l0.8-2h5.9l-1.2,2l-1.2,2l-1.2,2l-0.6,0.9l4.9-0.2l-1.2,1.3
		H-297.6z"/>
</g>
<g>
	<path id="path-3-4_31_" class="st1" d="M-283,0h5.9l-1.2,2l-1.2,2l-1.2,2l-0.6,0.9l4.9-0.2l-1.2,1.3l-1.8,2l-1.8,2l-1.8,2l-1.8,2
		l-1.8,2l-1.8,2l1.2-2l1.2-2l1.2-2l1.2-2l1-1.7h-4.2l0.1-0.3l0.8-2l0.8-2l0.8-2l0.8-2L-283,0z"/>
	<path id="path-3-4_15_" class="st0" d="M-285.3,6l0.8-2l0.8-2l0.8-2h5.9l-1.2,2l-1.2,2l-1.2,2L-285.3,6z"/>
</g>
<g>
	<path id="path-3-4_32_" class="st1" d="M-273.2,0h5.9l-1.2,2l-1.2,2l-1.2,2l-0.6,0.9l4.9-0.2l-1.2,1.3l-1.8,2l-1.8,2l-1.8,2l-1.8,2
		l-1.8,2l-1.8,2l1.2-2l1.2-2l1.2-2l1.2-2l1-1.7h-4.2l0.1-0.3l0.8-2l0.8-2l0.8-2l0.8-2L-273.2,0z"/>
	<path id="path-3-4_18_" class="st0" d="M-274.8,4l0.8-2l0.8-2h5.9l-1.2,2l-1.2,2L-274.8,4z"/>
</g>
<g>
	<path id="path-3-4_7_" class="st1" d="M-263.3,0h5.9l-1.2,2l-1.2,2l-1.2,2l-0.6,0.9l4.9-0.2l-1.2,1.3l-1.8,2l-1.8,2l-1.8,2l-1.8,2
		l-1.8,2l-1.8,2l1.2-2l1.2-2l1.2-2l1.2-2l1-1.7h-4.2l0.1-0.3l0.8-2l0.8-2l0.8-2l0.8-2L-263.3,0z"/>
	<path id="path-3-4_17_" class="st0" d="M-264.1,2l0.8-2h5.9l-1.2,2L-264.1,2z"/>
</g>
<path id="path-3-4_16_" class="st0" d="M-481.5,4l-1.2,2l-1.2,2l-0.6,0.9l4.9-0.2l-1.2,1.3l-1.8,2l-1.8,2l-1.8,2l-1.8,2l-1.8,2
	l-1.8,2l1.2-2l1.2-2l1.2-2l1.2-2l1-1.7h-4.2l0.1-0.3l0.8-2l0.8-2l0.8-2l0.8-2L-481.5,4z"/>
<path id="path-3-4_8_" class="st0" d="M-458.3,8l-0.6,0.9l4.9-0.2l-1.2,1.3l-1.8,2l-1.8,2l-1.8,2l-1.8,2l-1.8,2l-1.8,2l1.2-2l1.2-2
	l1.2-2l1.2-2l1-1.7h-4.2l0.1-0.3l0.8-2l0.8-2L-458.3,8z"/>
<path id="path-3-4_12_" class="st0" d="M-429.4,12l-1.8,2l-1.8,2l-1.8,2l-1.8,2l-1.8,2l1.2-2l1.2-2l1.2-2l1.2-2l1-1.7h-4.2l0.1-0.3
	L-429.4,12z"/>
<g>
	<path id="path-3_2_" class="st1" d="M-185.6,0h5.9l-4.2,6.9l4.9-0.2L-191.1,20l5.7-9.7h-4.2L-185.6,0z"/>
	<path id="path-3-2_2_" class="st1" d="M-217.3,0h5.9l-4.2,6.9l4.9-0.2L-222.8,20l5.7-9.7h-4.2L-217.3,0z"/>
	<path id="path-3-4_2_" class="st0" d="M-248.4,0h5.9l-1.2,2l-1.2,2l-1.2,2l-0.6,0.9l4.9-0.2L-243,8l-1.8,2l-1.8,2l-1.8,2l-1.8,2
		l-1.8,2l-1.8,2l1.2-2l1.2-2l1.2-2l1.2-2l1-1.7h-4.2l0.1-0.3l0.8-2l0.8-2l0.8-2l0.8-2L-248.4,0z"/>
	<path id="path-3-5_2_" class="st1" d="M-201.5,0h5.9l-4.2,6.9l4.9-0.2L-206.9,20l5.7-9.7h-4.2L-201.5,0z"/>
	<g>
		<path id="path-3-4_44_" class="st1" d="M-232.9,0h5.9l-1.2,2l-1.2,2l-1.2,2l-0.6,0.9l4.9-0.2l-1.2,1.3l-1.8,2l-1.8,2l-1.8,2
			l-1.8,2l-1.8,2l-1.8,2l1.2-2l1.2-2l1.2-2l1.2-2l1-1.7h-4.2l0.1-0.3l0.8-2l0.8-2l0.8-2l0.8-2L-232.9,0z"/>
		<path id="path-3-4_43_" class="st0" d="M-237.2,18l1.2-2l1.2-2l1.2-2l1-1.7h-4.2l0.1-0.3l0.8-2l0.8-2l0.8-2l0.8-2l0.8-2h5.9
			l-1.2,2l-1.2,2l-1.2,2l-0.6,0.9l4.9-0.2l-1.2,1.3l-1.8,2l-1.8,2l-1.8,2l-1.8,2l-1.8,2L-237.2,18z"/>
	</g>
</g>
<rect x="-185" y="-14.3" class="st0" width="6.6" height="6.6"/>
<rect x="-174.8" y="-14.3" class="st1" width="6.6" height="6.6"/>
<g>
</g>
<path id="path-3-4_4_" class="st0" d="M-414.7,16l-1.8,2l-1.8,2l-1.8,2l1.2-2l1.2-2l1.2-2L-414.7,16z"/>
<path id="path-3-4_5_" class="st0" d="M-410.4,18l-1.8,2l-1.8,2l1.2-2l1.2-2L-410.4,18z"/>
<path id="path-3-4_6_" class="st0" d="M-406.9,20l-1.8,2l1.2-2H-406.9z"/>
<g>
</g>
</svg>
