<svg xmlns="http://www.w3.org/2000/svg" width="32" height="32" viewBox="0 0 32 32">
  <style>
    .st0{fill-rule:evenodd;clip-rule:evenodd;fill:#727c60}
  </style>
  <path class="st0" d="M26.32 16c0-5.7-4.62-10.32-10.32-10.32S5.68 10.3 5.68 16 10.3 26.32 16 26.32 26.32 21.7 26.32 16zm-.19-11.72c-.92 0-1.66.75-1.66 1.66 0 .92.74 1.66 1.66 1.66.91 0 1.66-.74 1.66-1.66 0-.92-.75-1.66-1.66-1.66zM7.56 1.89h16.87c3.13 0 5.67 2.55 5.67 5.67v16.87c0 3.13-2.55 5.67-5.67 5.67H7.56c-3.12 0-5.67-2.55-5.67-5.67V7.56c0-3.12 2.55-5.67 5.67-5.67zM24.44 0H7.56C3.41 0 0 3.41 0 7.56v16.87C0 28.6 3.41 32 7.56 32h16.87C28.6 32 32 28.6 32 24.44V7.56C32 3.41 28.6 0 24.44 0zM7.82 16c0-4.51 3.66-8.18 8.18-8.18s8.18 3.66 8.18 8.18c0 4.51-3.66 8.18-8.18 8.18S7.82 20.52 7.82 16z"/>
</svg>
