<svg id="レイヤー_1" data-name="レイヤー 1" xmlns="http://www.w3.org/2000/svg" viewBox="0 0 32 32">
  <defs>
    <style>
      .cls-1{fill:#727c60}
    </style>
  </defs>
  <title>
    icon-poket
  </title>
  <path class="cls-1" d="M31.84 3.62a2.91 2.91 0 0 0-2.73-1.91H2.9A2.92 2.92 0 0 0 .19 3.58a2.89 2.89 0 0 0-.19 1v9.66l.11 1.92A15.61 15.61 0 0 0 6.35 27l.19.14a15.84 15.84 0 0 0 6.3 2.86A16.06 16.06 0 0 0 19 30l.35-.07h.1a15.84 15.84 0 0 0 6-2.71l.19-.14a15.61 15.61 0 0 0 6.24-10.85l.12-1.96V4.61a2.88 2.88 0 0 0-.16-.99zm-6.77 10.06l-7.53 7.22a2.19 2.19 0 0 1-3 0L7 13.68a2.19 2.19 0 0 1 3-3.17l6 5.76 6-5.76a2.19 2.19 0 1 1 3 3.17z"/>
</svg>
