<svg id="レイヤー_1" data-name="レイヤー 1" xmlns="http://www.w3.org/2000/svg" viewBox="0 0 32 32">
  <defs>
    <style>
      .cls-1{fill:#727c60}
    </style>
  </defs>
  <title>
    icon-hatebu
  </title>
  <path class="cls-1" d="M13.76 14.55a1.19 1.19 0 0 0 .54-1.11 1.28 1.28 0 0 0-.51-1.15 4 4 0 0 0-2-.33H11v2.92h.79a4.37 4.37 0 0 0 1.97-.33zM14.38 17.83a3.79 3.79 0 0 0-2-.36H11v3.18h1.39a4.05 4.05 0 0 0 2-.35 1.27 1.27 0 0 0 .58-1.18 1.43 1.43 0 0 0-.59-1.29z"/>
  <path class="cls-1" d="M25.48 0h-19A6.52 6.52 0 0 0 0 6.52v19A6.52 6.52 0 0 0 6.52 32h19A6.52 6.52 0 0 0 32 25.48v-19A6.52 6.52 0 0 0 25.48 0zm-4.2 8.73h3.2v9.7h-3.2zm-3.1 12.44a3.36 3.36 0 0 1-1.4 1.37 5.8 5.8 0 0 1-1.78.56 26.66 26.66 0 0 1-3.57.17H7.27V8.73h4a25.32 25.32 0 0 1 3.44.16 5.22 5.22 0 0 1 1.68.55 3.12 3.12 0 0 1 1.23 1.19 3.52 3.52 0 0 1 .38 1.72 2.89 2.89 0 0 1-.63 2 4 4 0 0 1-2 1.11 3.45 3.45 0 0 1 2.42 1.09 3.73 3.73 0 0 1 .87 2.59 4.16 4.16 0 0 1-.48 2.02zm4.7 2.11a1.84 1.84 0 1 1 1.84-1.84 1.84 1.84 0 0 1-1.83 1.83z"/>
</svg>
