<svg xmlns="http://www.w3.org/2000/svg" width="32" height="26.01" viewBox="0 0 32 26.01">
  <style>
    .st0{fill:#727c60}
  </style>
  <path class="st0" d="M32 3.08c-1.18.52-2.44.88-3.77 1.03 1.36-.81 2.4-2.1 2.89-3.63-1.27.75-2.67 1.3-4.17 1.59C25.75.8 24.04 0 22.15 0c-3.63 0-6.56 2.94-6.56 6.57 0 .51.06 1.02.17 1.5C10.3 7.79 5.47 5.17 2.23 1.2c-.57.97-.89 2.1-.89 3.3 0 2.28 1.16 4.29 2.92 5.46-1.08-.03-2.09-.32-2.97-.81v.08c0 3.18 2.26 5.83 5.27 6.44-.56.15-1.14.23-1.74.23-.42 0-.83-.04-1.24-.12.84 2.61 3.26 4.51 6.13 4.56-2.25 1.76-5.08 2.81-8.15 2.81-.53 0-1.05-.03-1.57-.09 2.91 1.86 6.36 2.95 10.06 2.95 12.08 0 18.68-10 18.68-18.68 0-.28-.01-.57-.02-.85 1.3-.93 2.41-2.08 3.29-3.4z"/>
</svg>
