<svg data-name="レイヤー 1" xmlns="http://www.w3.org/2000/svg" viewBox="0 0 32 32">
  <style>
    .st0{fill:#727c60}
  </style>
  <path class="st0" d="M18.48 2.89a3.52 3.52 0 0 0-5 0L1 15.38a3.52 3.52 0 0 0 0 5l8.91 8.91a3.52 3.52 0 0 0 2.32.87h7.49a3.52 3.52 0 0 0 2.5-1l8.78-8.8a3.52 3.52 0 0 0 0-5zM9.41 19.47a.5.5 0 0 1-.36.15H8a.5.5 0 0 1-.33-.12l-1.28-1.27a.5.5 0 0 1 0-.71l9.26-9.26a.5.5 0 0 1 .71 0L18.13 10a.5.5 0 0 1 0 .71zm8.72 6.23l-1.25 1.25a.5.5 0 0 1-.36.15h-1.06a.5.5 0 0 1-.33-.12l-1.27-1.28a.5.5 0 0 1 0-.71l1.78-1.78a.5.5 0 0 1 .71 0L18.13 25a.5.5 0 0 1 0 .7zm0-7.47l-5 5a.5.5 0 0 1-.36.15h-1.04a.5.5 0 0 1-.33-.12L10.12 22a.5.5 0 0 1 0-.71l5.52-5.52a.5.5 0 0 1 .71 0l1.78 1.78a.5.5 0 0 1 0 .68z"/>
</svg>
