<svg id="グループ化_244" data-name="グループ化 244" xmlns="http://www.w3.org/2000/svg" viewBox="0 0 17.185 16.375">
  <defs>
    <style>
      .cls-1{fill:#727c60}.cls-2{fill:#fff}
    </style>
  </defs>
  <path id="パス_97" data-name="パス 97" class="cls-1" d="M36.4 29.938c0-3.845-3.855-6.973-8.592-6.973s-8.592 3.128-8.592 6.973c0 3.448 3.057 6.334 7.187 6.879.28.061.661.185.758.423a1.771 1.771 0 0 1 .028.778l-.122.736c-.038.217-.173.85.745.463a27.766 27.766 0 0 0 6.752-4.99 6.217 6.217 0 0 0 1.837-4.29" transform="translate(-19.212 -22.965)"/>
  <path id="パス_98" data-name="パス 98" class="cls-2" d="M40.308 53.946h-.6a.167.167 0 0 0-.168.166v3.744a.167.167 0 0 0 .168.166h.6a.167.167 0 0 0 .168-.166v-3.744a.168.168 0 0 0-.168-.166m4.148 0h-.6a.167.167 0 0 0-.168.166v2.224L41.97 54.02a.065.065 0 0 0-.013-.02l-.01-.01s-.007 0-.008-.008l-.008-.007h-.008a.023.023 0 0 0-.01 0H41.886a.01.01 0 0 1-.007 0 .012.012 0 0 1-.008 0h-.618a.167.167 0 0 0-.168.166v3.746a.167.167 0 0 0 .168.166h.6a.167.167 0 0 0 .147-.196v-2.224l1.716 2.321a.17.17 0 0 0 .043.041l.01.007h.028a.179.179 0 0 0 .043 0h.6a.167.167 0 0 0 .168-.166v-3.724a.167.167 0 0 0-.168-.166m-5.6 3.141h-1.622v-2.975a.168.168 0 0 0-.168-.168h-.6a.168.168 0 0 0-.168.168v3.744a.169.169 0 0 0 .046.115.162.162 0 0 0 .115.046h2.408a.167.167 0 0 0 .166-.168v-.6a.161.161 0 0 0-.163-.165m8.93-2.2a.166.166 0 0 0 .166-.168v-.6a.167.167 0 0 0-.166-.168h-2.407a.163.163 0 0 0-.115.048.169.169 0 0 0-.046.115v3.744a.169.169 0 0 0 .046.115.162.162 0 0 0 .115.046h2.408a.167.167 0 0 0 .166-.168v-.6a.167.167 0 0 0-.166-.168h-1.639v-.633h1.637a.166.166 0 0 0 .166-.168v-.6a.167.167 0 0 0-.166-.168h-1.637v-.631h1.639z" transform="translate(-33.462 -48.831)"/>
</svg>
