<svg xmlns="http://www.w3.org/2000/svg" width="32" height="32" viewBox="0 0 32 32">
  <style>
    .st0{fill:#727c60}
  </style>
  <path class="st0" d="M32 16c0 2.9-.72 5.58-2.15 8.03-1.43 2.45-3.37 4.39-5.82 5.82C21.58 31.29 18.9 32 16 32c-1.54 0-3.06-.22-4.54-.67.82-1.29 1.36-2.43 1.62-3.42.12-.47.5-1.94 1.12-4.39.28.54.78 1.01 1.52 1.41.74.39 1.53.59 2.38.59 1.68 0 3.18-.48 4.5-1.43 1.32-.95 2.34-2.26 3.06-3.93.72-1.67 1.08-3.54 1.08-5.62 0-1.58-.41-3.07-1.24-4.46-.83-1.39-2.02-2.52-3.59-3.4-1.57-.88-3.34-1.31-5.31-1.31-1.46 0-2.82.2-4.08.6-1.26.4-2.34.94-3.22 1.61-.88.67-1.64 1.43-2.27 2.3-.63.87-1.1 1.77-1.4 2.7-.3.93-.45 1.86-.45 2.79 0 1.44.28 2.71.83 3.81.56 1.1 1.37 1.87 2.44 2.31.42.17.68.03.79-.42.03-.1.08-.31.17-.65.08-.33.14-.54.17-.62.08-.32.01-.62-.23-.9-.71-.85-1.06-1.89-1.06-3.14 0-2.1.73-3.9 2.18-5.41 1.45-1.51 3.35-2.26 5.7-2.26 2.1 0 3.73.57 4.91 1.71 1.17 1.14 1.76 2.62 1.76 4.44 0 2.36-.48 4.37-1.43 6.02-.95 1.65-2.17 2.48-3.66 2.48-.85 0-1.53-.3-2.04-.91-.51-.6-.67-1.33-.48-2.18.11-.49.3-1.13.55-1.95.26-.81.47-1.53.62-2.15.16-.62.24-1.14.24-1.57 0-.69-.19-1.27-.56-1.73-.38-.46-.91-.69-1.6-.69-.86 0-1.59.39-2.19 1.19-.6.79-.9 1.78-.9 2.96 0 1.01.17 1.86.52 2.54l-2.06 8.71c-.24.97-.33 2.2-.27 3.69-2.86-1.26-5.17-3.21-6.94-5.85C.88 22.17 0 19.24 0 16c0-2.9.72-5.58 2.15-8.03 1.43-2.45 3.37-4.39 5.82-5.82C10.42.71 13.1 0 16 0c2.9 0 5.58.71 8.03 2.15 2.45 1.43 4.39 3.37 5.82 5.82C31.28 10.42 32 13.1 32 16z"/>
</svg>
