<svg xmlns="http://www.w3.org/2000/svg" viewBox="0 0 47.78 47.78">
<defs><style>.cls-1{fill:#919191;}</style></defs>
<path class="cls-1" d="M23.89,10.67c-4.25,0-7.69,3.82-7.69,8.52a9.1,9.1,0,0,0,1.6,5.2,10.19,10.19,0,0,1,12.18,0,9.1,9.1,0,0,0,1.6-5.2C31.58,14.49,28.14,10.67,23.89,10.67Z"/>
<path class="cls-1" d="M47.78,23.89A23.89,23.89,0,1,0,10.32,43.54h0a23.8,23.8,0,0,0,27.12,0h0A23.9,23.9,0,0,0,47.78,23.89ZM37.64,41.11v0c0-8.42-6.16-15.25-13.75-15.25S10.14,32.66,10.14,41.08v0a22.05,22.05,0,1,1,27.5,0Z"/>
</svg>