<svg xmlns="http://www.w3.org/2000/svg" viewBox="0 0 401.73 670.65"><defs><style>.cls-1{fill:#595c4e;}</style></defs><title>faviconアセット 1</title><g id="レイヤー_2" data-name="レイヤー 2"><g id="レイヤー_1-2" data-name="レイヤー 1"><path class="cls-1" d="M401.65,126.34c-1.51-17-9.11-59.85-47.11-91.37-34.05-28.23-83-39.48-145.63-33.34C140.89,8.28,87,36,48.85,84,6.52,137.14-1.68,197.93.26,212.89c2.91,22.45,16,36.09,35.57,38.56-.79,15.72,9.91,67.61,31.68,166,4.8,21.71,8.89,40.22,11.12,51.22.83,4.11,1.62,8,2.4,11.73-.91.41-1.78.64-2.71,1.1-7.93,4-13.56,11.37-16.27,21.4-6.16,22.84,3.4,60,23.28,90.39,33.3,50.93,77.31,77.41,128.12,77.41a154.49,154.49,0,0,0,18.33-1.12c66.79-8,115.33-67.48,122-117.95C356.87,528.26,403.93,152.12,401.65,126.34ZM266.57,519.61c-.29,2.29-7.39,55.31-57.38,55.31q-1.4,0-2.82-.06c-44-1.71-50.54-22.9-57.44-45.32-1.19-3.88-2.35-7.64-3.66-11.14-5.58-15.12-12.24-26-20.11-33.06C118.55,454.79,106.5,402.26,89,326.87c-7.78-33.6-15.16-65.47-16.65-72.7.91-3.84,4-14.61,6.77-24.24,7-24.2,11.94-41.85,12.79-48.42a27.43,27.43,0,0,0-.63-11.63,69.06,69.06,0,0,1,13.81-19.45c1.21-1.16,2.86-2.94,4.92-5.18,12-13,40-43.41,84.23-51.84,52.57-10,99.76,4.31,112.37,34.51,5.41,11.31,3.21,29.11,2.49,35-.19,1.57-.29,2.67-.28,2.67v0C308.3,171.93,280.94,400,266.57,519.61Z"/></g></g></svg>